<?xml version="1.0" encoding="UTF-8" standalone="no"?>
<svg
   xmlns:dc="http://purl.org/dc/elements/1.1/"
   xmlns:cc="http://creativecommons.org/ns#"
   xmlns:rdf="http://www.w3.org/1999/02/22-rdf-syntax-ns#"
   xmlns:svg="http://www.w3.org/2000/svg"
   xmlns="http://www.w3.org/2000/svg"
   viewBox="0 0 61.262501 47.287498"
   height="47.287498"
   width="61.262501"
   xml:space="preserve"
   version="1.1"
   id="svg2"><metadata
     id="metadata8"><rdf:RDF><cc:Work
         rdf:about=""><dc:format>image/svg+xml</dc:format><dc:type
           rdf:resource="http://purl.org/dc/dcmitype/StillImage" /></cc:Work></rdf:RDF></metadata><defs
     id="defs6" /><g
     transform="matrix(1.25,0,0,-1.25,0,47.2875)"
     id="g10"><g
       transform="scale(0.1,0.1)"
       id="g12"><path
         id="path14"
         style="fill:#495c70;fill-opacity:1;fill-rule:nonzero;stroke:none"
         d="m 0,378.277 92.8086,0 c 7.9684,0 14.6484,-1.882 20.0394,-5.625 5.39,-3.75 9.023,-8.32 10.898,-13.711 l 52.031,-167.695 c 3.985,-13.594 7.852,-26.891 11.602,-39.898 3.75,-13.008 6.914,-25.969 9.492,-38.848 2.578,12.879 5.801,25.84 9.668,38.848 3.867,13.007 8.027,26.304 12.481,39.898 l 53.789,167.695 c 1.875,5.625 5.507,10.247 10.898,13.887 5.391,3.633 11.602,5.449 18.633,5.449 l 88.594,0 L 246.441,4.92188 144.84,4.92188 0,378.277" /><path
         id="path16"
         style="fill:#f9ae27;fill-opacity:1;fill-rule:nonzero;stroke:none"
         d="m 365.621,61.5234 c 0,8.6602 1.602,16.6993 4.824,24.0821 3.223,7.3828 7.586,13.8281 13.094,19.3355 5.52,5.497 12.07,9.895 19.66,13.184 7.578,3.281 15.848,4.922 24.813,4.922 8.742,0 16.847,-1.641 24.308,-4.922 7.481,-3.289 14.024,-7.687 19.657,-13.184 5.625,-5.5074 10.05,-11.9527 13.273,-19.3355 3.211,-7.3828 4.824,-15.4219 4.824,-24.0821 0,-8.6718 -1.613,-16.8281 -4.824,-24.4336 C 482.027,29.4727 477.602,22.8984 471.977,17.4023 466.344,11.8945 459.801,7.61719 452.32,4.57031 444.859,1.52344 436.754,0 428.012,0 c -8.965,0 -17.235,1.52344 -24.813,4.57031 -7.59,3.04688 -14.14,7.32419 -19.66,12.83199 -5.508,5.4961 -9.871,12.0704 -13.094,19.6875 -3.222,7.6055 -4.824,15.7618 -4.824,24.4336" /></g></g></svg>